<?xml version="1.0" standalone="no"?>
<!DOCTYPE svg PUBLIC "-//W3C//DTD SVG 20010904//EN"
 "http://www.w3.org/TR/2001/REC-SVG-20010904/DTD/svg10.dtd">
<svg version="1.0" xmlns="http://www.w3.org/2000/svg"
 width="820.000000pt" height="536.000000pt" viewBox="0 0 820.000000 536.000000"
 preserveAspectRatio="xMidYMid meet">
<metadata>
Created by potrace 1.16, written by Peter Selinger 2001-2019
</metadata>
<g transform="translate(0.000000,536.000000) scale(0.100000,-0.100000)"
fill="#000000" stroke="none">
<path d="M4035 5349 c-82 -23 -96 -45 -507 -759 -52 -91 -232 -401 -398 -690
-167 -289 -351 -608 -410 -710 -203 -353 -864 -1497 -1088 -1885 -521 -901
-589 -1022 -596 -1064 -9 -61 9 -116 54 -161 76 -76 -189 -70 3018 -70 2174 0
2884 3 2914 12 59 18 123 78 138 132 19 70 3 113 -134 348 -136 235 -988 1705
-1321 2278 -116 201 -263 453 -325 560 -62 107 -293 506 -513 885 -220 380
-443 764 -496 855 -52 91 -111 183 -131 204 -58 65 -129 88 -205 65z m305
-724 c117 -203 304 -527 415 -720 111 -192 449 -777 750 -1300 302 -522 730
-1265 952 -1649 222 -385 402 -701 400 -703 -2 -1 -1244 -2 -2761 -1 l-2757 3
189 325 c197 340 852 1468 1195 2060 110 190 270 467 357 615 86 149 224 387
307 530 200 344 354 609 553 952 127 218 167 280 176 270 6 -6 107 -178 224
-382z"/>
<path d="M4047 3623 c-3 -5 -78 -249 -166 -543 -89 -294 -225 -744 -302 -998
-77 -255 -139 -466 -137 -468 2 -2 165 73 362 166 197 94 362 170 368 170 6 0
8 -31 4 -82 -3 -46 -11 -213 -17 -373 -6 -159 -12 -291 -13 -292 0 0 -43 6
-94 14 -52 8 -96 12 -99 9 -5 -4 156 -616 176 -669 6 -15 17 -4 62 60 30 43
122 171 203 286 81 114 149 213 152 221 4 10 -18 16 -86 26 -51 7 -94 18 -96
24 -3 9 238 838 378 1299 11 37 18 70 16 73 -3 2 -25 -7 -49 -20 -24 -13 -201
-108 -394 -211 -192 -103 -388 -208 -434 -233 -69 -37 -83 -42 -78 -26 3 10
168 367 366 793 199 426 361 776 361 777 0 8 -479 4 -483 -3z"/>
</g>
</svg>
